<?xml version="1.0" encoding="UTF-8"?>
<svg id="Layer_2" data-name="Layer 2" xmlns="http://www.w3.org/2000/svg" viewBox="0 0 130.09 18.37">
  <defs>
    <style>
      .cls-1 {
        fill: #0d8d45;
      }
    </style>
  </defs>
  <g id="Layer_1-2" data-name="Layer 1">
    <g>
      <path class="cls-1" d="M37.69,11.21c0-.17-.29-.06-.29.18-.16,9.39-22.69,7.57-30.58,4.53C-.98,12.92-2.96,6.36,5.5,2.43c7.52-3.49,24.4-3.63,30.77,2.29.56.52.88,1.16,1.42,1.68V2.29c0-1.9-3.53-1.56-4.78-1.71-.19-.02-.39-.1-.19-.25h19.67c3.86.31,8.72-.02,12.01,2.35,1.8,1.29,1.76,3.21,0,4.55-1.65,1.25-4.27,1.71-6.29,1.98-.18.02-.37-.12-.32.18,1.44,1.14,3.05,2.03,4.57,3.06,2.19,1.48,5.37,4.18,7.98,4.6.29.05.85-.08,1,.14l-.13.25h-11.07l-11.4-7.79c-.83-.05-1.71-.14-2.54-.14-.15,0-.16,0-.26.14v5.45c0,.17.28.94.4,1.12.84,1.22,4.45.65,4.69.97,0,.08-.17.25-.19.25h-18.14c-.06-.38.1-.2.31-.26.95-.24,3.9,0,4.4-.98.05-.09.26-.69.26-.73v-4.26ZM26.69,3.04C22.84-.36,13.42-.28,10.55,4.42c-1.91,3.14-1.42,8.33,1.56,10.66,3.64,2.85,11.8,2.73,14.96-.86,2.32-2.64,2.29-8.81-.39-11.18ZM45.96,1.4c-.19,2.32.14,4.88,0,7.23.11.18.25.17.44.2.92.11,2.6.04,3.58,0,2.76-.13,7.78-.54,7.15-4.48-.42-2.62-4.09-3.16-6.26-3.27-1.63-.08-3.28.07-4.91,0,.1.13,0,.22,0,.32Z"/>
      <path class="cls-1" d="M97.13.32h30.42v4.94c-1.09.22-1.02-.63-1.47-1.26-1.83-2.58-6.22-2.82-9.15-2.93-1.55-.06-4.14-.17-5.61,0-.19.02-.33.02-.44.2v6.85s.16.19.13.32c3.19-.15,7.11-.31,7.77-4.17h.88s0,8.86,0,8.86c-1.2.29-1.12-1.28-1.69-1.99-.98-1.2-2.74-1.77-4.23-1.94-.44-.05-2.06-.18-2.42-.14-.19.02-.33.02-.44.2v6.09c0,1.01,2.13,1.28,2.86,1.33,4.14.27,11.41-.12,14.51-3.16.59-.58.86-1.63,1.84-1.4l-1.53,5.32h-31.44c0-.59.63-.22,1.08-.24.58-.03,2.01-.1,2.48-.22.44-.12,1.53-.74,1.53-1.25v-5.01c-1.05.25-3.55.19-3.69,1.58-.06.59.12,4.01-.07,4.14-1.31.28-2.63.53-3.96.72-6.18.91-14.06,1.2-20.15-.17-4.26-.95-11.64-3.38-10.45-9.01,0-.03.19-.53.2-.56,1.71-3.99,8.67-6.09,12.64-6.69,6.33-.95,12.58-.28,18.83.82.64.1,1.88-.26,1.56-1.23ZM98.53.77v5.2c0,.08-.21.18-.32.2-.62.1-1.47-1.23-1.94-1.65-5.34-4.72-22.23-5.71-23.19,3.74-.76,7.5,6.15,8.98,12.16,8.94l2.03-.13,2.99-.51c-.45-1.2.27-3.97-.37-4.98-.14-.22-1.83-.72-2.11-.72h-2.23v-.25h16.67V1.78c0-.32-.58-.57-.8-.7-.09-.05-.21-.07-.23-.08-.06-.03-.13-.04-.27-.07-.39-.08-2.26-.58-2.39-.16Z"/>
    </g>
  </g>
</svg>